<?xml version="1.0" encoding="UTF-8"?>
<svg xmlns="http://www.w3.org/2000/svg" xmlns:xlink="http://www.w3.org/1999/xlink" width="45px" height="45px" viewBox="0 0 45 45" version="1.1">
<g id="surface1">
<path style=" stroke:none;fill-rule:nonzero;fill:rgb(0%,0%,0%);fill-opacity:1;" d="M 22.5 30 L 13.125 20.625 L 15.75 17.90625 L 20.625 22.78125 L 20.625 7.5 L 24.375 7.5 L 24.375 22.78125 L 29.25 17.90625 L 31.875 20.625 Z M 11.25 37.5 C 10.21875 37.5 9.335938 37.132812 8.601562 36.398438 C 7.867188 35.664062 7.5 34.78125 7.5 33.75 L 7.5 28.125 L 11.25 28.125 L 11.25 33.75 L 33.75 33.75 L 33.75 28.125 L 37.5 28.125 L 37.5 33.75 C 37.5 34.78125 37.132812 35.664062 36.398438 36.398438 C 35.664062 37.132812 34.78125 37.5 33.75 37.5 Z M 11.25 37.5 "/>
</g>
</svg>
